<svg width="20" height="20" viewBox="0 0 22 22" fill="none" xmlns="http://www.w3.org/2000/svg">
<path d="M20.3432 13.6182C18.9696 19.0975 13.389 22.4318 7.8787 21.0657C2.37103 19.6997 -0.982045 14.1497 0.391901 8.6707C1.76488 3.19073 7.34519 -0.144233 12.8538 1.22184C18.3638 2.58792 21.7165 8.13852 20.3429 13.6182H20.3432Z" fill="#262626"/>
<path fill-rule="evenodd" clip-rule="evenodd" d="M13.4631 9.9557C13.6018 9.03244 12.8949 8.53612 11.9284 8.20502L12.2419 6.95435L11.4762 6.76463L11.171 7.98234C10.97 7.93247 10.7633 7.88542 10.5579 7.8388L10.8653 6.61307L10.1003 6.42334L9.78653 7.67357C9.61996 7.63585 9.45644 7.59855 9.29771 7.55931L9.29858 7.5554L8.2429 7.29326L8.03926 8.10636C8.03926 8.10636 8.60722 8.23581 8.59523 8.24383C8.90526 8.32081 8.96151 8.52484 8.95192 8.6866L8.59479 10.1114C8.61616 10.1168 8.64385 10.1246 8.67437 10.1367L8.5937 10.1168L8.0929 12.1127C8.05496 12.2064 7.95881 12.3469 7.74209 12.2935C7.74972 12.3046 7.18569 12.1554 7.18569 12.1554L6.80566 13.0271L7.80205 13.274C7.91452 13.3021 8.02563 13.3309 8.13551 13.3594L8.1356 13.3594C8.20675 13.3779 8.27739 13.3962 8.34755 13.4141L8.03076 14.6793L8.79538 14.869L9.10934 13.6175C9.31799 13.6739 9.52075 13.7259 9.71916 13.7749L9.40651 15.0206L10.172 15.2103L10.4888 13.9477C11.7941 14.1934 12.7759 14.0943 13.1886 12.9204C13.5215 11.975 13.1723 11.4297 12.4855 11.0739C12.9856 10.9587 13.3624 10.6316 13.4629 9.9557H13.4631ZM11.7127 12.3946C11.4953 13.2623 10.1294 12.9033 9.505 12.7392L9.50492 12.7391C9.44904 12.7244 9.39909 12.7113 9.35645 12.7008L9.7768 11.0249C9.82895 11.0378 9.89267 11.0521 9.96484 11.0682C10.6108 11.2123 11.9347 11.5078 11.7129 12.3946H11.7127ZM10.0945 10.2905C10.6156 10.4287 11.7512 10.7301 11.9491 9.94184C12.1514 9.13547 11.047 8.89243 10.5077 8.77373C10.447 8.76039 10.3936 8.74862 10.3499 8.73779L9.96875 10.2578C10.0048 10.2667 10.0471 10.2779 10.0945 10.2905Z" fill="#CAFF33"/>
</svg>
