<svg width="20" height="20" viewBox="0 0 22 22" fill="none" xmlns="http://www.w3.org/2000/svg">
<path fill-rule="evenodd" clip-rule="evenodd" d="M11.0238 21.3715C16.7037 21.3715 21.3083 16.7923 21.3083 11.1435C21.3083 5.49476 16.7037 0.915527 11.0238 0.915527C5.34379 0.915527 0.739258 5.49476 0.739258 11.1435C0.739258 16.7923 5.34379 21.3715 11.0238 21.3715Z" fill="#262626"/>
<path fill-rule="evenodd" clip-rule="evenodd" d="M10.1228 6.4231C10.6877 6.4231 11.2504 6.4231 11.8152 6.4231C11.782 6.80308 11.7467 7.18514 11.7156 7.56513C12.3738 7.61263 13.0155 7.82327 13.5928 8.13511C13.3436 8.75879 13.0923 9.38247 12.8411 10.0061C12.3551 9.59518 11.7156 9.36801 11.0781 9.37627C10.9182 9.3804 10.752 9.41138 10.6191 9.50225C10.5319 9.56214 10.4675 9.65507 10.4489 9.75833C10.4343 9.84093 10.4385 9.93386 10.4842 10.0082C10.5361 10.0908 10.6274 10.1404 10.7188 10.1714C10.9057 10.2374 11.1071 10.2416 11.3023 10.2622C11.7613 10.318 12.2222 10.3965 12.6563 10.5596C12.9927 10.6876 13.3145 10.8797 13.545 11.1606C13.7631 11.4187 13.8897 11.745 13.9375 12.0796C13.9936 12.4657 13.977 12.8664 13.8565 13.2422C13.7631 13.5438 13.6032 13.8246 13.3955 14.0621C12.9657 14.5578 12.3344 14.8551 11.6865 14.9315C11.7073 15.3384 11.7322 15.7432 11.755 16.15C11.2193 16.15 10.6856 16.15 10.1519 16.15C10.1727 15.7473 10.1997 15.3446 10.2184 14.9419C9.78851 14.9274 9.36281 14.8324 8.96203 14.6817C8.57372 14.535 8.20409 14.3409 7.85938 14.1137C8.11272 13.4653 8.36606 12.8168 8.62148 12.1663C8.91012 12.4079 9.21745 12.633 9.55386 12.8044C9.91518 12.9882 10.316 13.1059 10.723 13.1101C10.9161 13.1121 11.1154 13.1018 11.2982 13.0357C11.4103 12.9944 11.5204 12.9221 11.5702 12.8086C11.6221 12.6888 11.618 12.538 11.5391 12.4306C11.483 12.3584 11.4041 12.3088 11.321 12.2737C11.2089 12.2283 11.0926 12.2035 10.9742 12.1849C10.5382 12.1147 10.1 12.0568 9.67845 11.9205C9.33997 11.8111 9.00979 11.6583 8.73984 11.4228C8.56956 11.2762 8.42836 11.0965 8.32868 10.8942C8.17917 10.5927 8.1231 10.2519 8.12725 9.91734C8.12725 9.54355 8.20409 9.16356 8.39098 8.8352C8.55295 8.54195 8.80006 8.30239 9.07832 8.11859C9.41473 7.89762 9.79059 7.74686 10.1727 7.62502C10.1561 7.22438 10.1394 6.82374 10.1228 6.4231Z" fill="#CAFF33"/>
</svg>
