<svg width="21" height="21" viewBox="0 0 22 22" fill="none" xmlns="http://www.w3.org/2000/svg">
<path d="M21.2672 11.144C21.2672 16.763 16.687 21.3182 11.037 21.3182C5.38688 21.3182 0.806641 16.763 0.806641 11.144C0.806641 5.52504 5.38688 0.969971 11.037 0.969971C16.6869 0.969971 21.2672 5.52504 21.2672 11.144Z" fill="#262626"/>
<g opacity="0.8">
<path d="M11.0026 6.42358L10.9395 6.63718V12.8352L11.0026 12.8979L13.8956 11.1973L11.0026 6.42358Z" fill="#CAFF33"/>
<path d="M11.0033 6.42358L8.11035 11.1973L11.0033 12.8979V9.88961V6.42358Z" fill="#CAFF33"/>
<path d="M11.0034 13.8338L10.9678 13.877V16.0848L11.0034 16.1883L13.8981 12.134L11.0034 13.8338Z" fill="#CAFF33"/>
<path d="M11.0033 16.1883V13.8338L8.11035 12.134L11.0033 16.1883Z" fill="#CAFF33"/>
<path d="M11.0029 12.8979L13.8958 11.1973L11.0029 9.88965V12.8979Z" fill="#CAFF33"/>
<path d="M8.11035 11.1973L11.0033 12.898V9.88965L8.11035 11.1973Z" fill="#CAFF33"/>
</g>
</svg>
