<svg width="20" height="20" viewBox="0 0 21 22" fill="none" xmlns="http://www.w3.org/2000/svg">
<path d="M20.9234 11.1443C20.9234 16.7633 16.3432 21.3184 10.6932 21.3184C5.04313 21.3184 0.462891 16.7633 0.462891 11.1443C0.462891 5.52529 5.04313 0.970215 10.6932 0.970215C16.3432 0.970215 20.9234 5.52529 20.9234 11.1443Z" fill="#262626"/>
<path d="M13.5675 15.395L13.3315 14.3289C13.3181 14.2662 13.2843 14.2193 13.2303 14.1881C13.1718 14.1568 13.1134 14.1524 13.0551 14.1748L13.0213 14.1881L12.9403 14.2082C12.9043 14.217 12.8627 14.2272 12.8155 14.2383C12.7683 14.2495 12.7134 14.2606 12.6503 14.2719C12.5876 14.283 12.521 14.2932 12.4515 14.3021C12.3819 14.3108 12.3067 14.3188 12.2257 14.3255C12.1447 14.3321 12.0639 14.3355 11.9829 14.3355C11.4121 14.3355 10.8985 14.1825 10.4423 13.8763C9.98605 13.57 9.65005 13.1553 9.43432 12.6324H12.0435C12.093 12.6324 12.138 12.6157 12.1783 12.5821C12.2189 12.5487 12.2436 12.5074 12.2524 12.458L12.4142 11.707C12.4278 11.6401 12.4142 11.5797 12.3739 11.526C12.329 11.4723 12.2726 11.4455 12.2053 11.4455H9.11075C9.09726 11.1415 9.09726 10.9069 9.11075 10.7414H12.401C12.5224 10.7414 12.5943 10.6834 12.6167 10.5671L12.7786 9.80273C12.7919 9.74016 12.7764 9.6821 12.7313 9.62841C12.691 9.57477 12.6349 9.54784 12.5629 9.54784H9.40743C9.63217 9.04719 9.96926 8.65383 10.4188 8.36773C10.8683 8.08156 11.3762 7.93855 11.9426 7.93855C11.9606 7.92963 12.0268 7.93188 12.1414 7.94527C12.256 7.95861 12.3213 7.96425 12.3369 7.96199C12.3525 7.95978 12.4111 7.96652 12.5122 7.98207C12.6133 7.99771 12.6639 8.00556 12.6639 8.00556L12.7819 8.029C12.8157 8.03576 12.8416 8.04126 12.8595 8.04579L12.8865 8.05246C12.9449 8.07042 12.9987 8.06479 13.0483 8.03576C13.0978 8.00661 13.1293 7.9631 13.1428 7.90499L13.4327 6.83886C13.4462 6.78073 13.4394 6.72709 13.4126 6.67794C13.3721 6.6242 13.327 6.59069 13.2776 6.57733C12.8641 6.47453 12.4279 6.4231 11.9696 6.4231C10.9626 6.4231 10.0626 6.70927 9.26921 7.28138C8.47585 7.85354 7.92856 8.60907 7.62739 9.54777H6.9667C6.90374 9.54777 6.8521 9.56785 6.81162 9.60808C6.77126 9.64826 6.75098 9.69969 6.75098 9.76231V10.5267C6.75098 10.5893 6.77119 10.6407 6.81162 10.6809C6.85212 10.7211 6.90384 10.7412 6.9667 10.7412H7.41847C7.40489 10.9558 7.40274 11.1904 7.41166 11.4453H6.9667C6.90828 11.4453 6.85772 11.4665 6.81502 11.509C6.77235 11.5514 6.75098 11.6017 6.75098 11.6597V12.4175C6.75098 12.4757 6.77235 12.5258 6.81502 12.5684C6.85774 12.6109 6.90828 12.6319 6.9667 12.6319H7.60725C7.89042 13.6198 8.42536 14.4056 9.21196 14.9889C9.99861 15.5724 10.9178 15.864 11.9696 15.864C12.055 15.864 12.1415 15.8619 12.2292 15.8572C12.3171 15.8527 12.3989 15.846 12.4754 15.8371C12.5517 15.8283 12.6271 15.8183 12.7013 15.8071C12.7754 15.7958 12.8428 15.7848 12.9035 15.7735C12.9641 15.7624 13.0215 15.7512 13.0753 15.7401C13.1293 15.7288 13.1777 15.7167 13.2204 15.7032C13.2631 15.6899 13.2989 15.6798 13.3282 15.6732C13.3575 15.6665 13.3811 15.6585 13.3989 15.6497L13.4327 15.643C13.4822 15.6251 13.5204 15.5927 13.5473 15.5456C13.5743 15.499 13.5809 15.4486 13.5675 15.395Z" fill="#CAFF33"/>
</svg>
