<svg width="64" height="64" viewBox="0 0 64 64" fill="none" xmlns="http://www.w3.org/2000/svg">
<rect width="64" height="64" rx="32" fill="url(#paint0_linear_108_4614)" fill-opacity="0.05"/>
<rect x="8" y="8" width="48" height="48" rx="24" fill="url(#paint1_linear_108_4614)" fill-opacity="0.1"/>
<rect x="8.5" y="8.5" width="47" height="47" rx="23.5" stroke="url(#paint2_linear_108_4614)" stroke-opacity="0.2"/>
<g clip-path="url(#clip0_108_4614)">
<path d="M34.1544 25.5026C34.1808 25.5334 34.1852 25.5422 34.1896 25.5422C34.6251 25.6038 34.8275 25.9293 35.0607 26.2548C35.329 26.6244 35.6501 26.9631 35.9933 27.271C36.8951 28.0848 37.4493 29.0702 37.6341 30.2712C37.9552 32.3739 36.7499 34.5339 34.7703 35.3741C31.7658 36.6498 28.4093 34.7098 28.0618 31.4633C27.877 29.7345 28.5105 28.3048 29.8302 27.1786C30.2569 26.8135 30.6132 26.3912 30.9079 25.9117C30.9607 25.8237 31.0575 25.7533 31.1499 25.7093C31.2995 25.639 31.4666 25.5994 31.6558 25.5334C31.5942 25.4586 31.5502 25.4058 31.5018 25.353C31.2071 25.0495 30.9123 24.7372 30.6132 24.4424C30.5076 24.3368 30.4592 24.2269 30.4636 24.0773C30.4724 23.4526 30.468 22.8324 30.468 22.2077C30.468 21.957 30.776 21.5566 31.0267 21.5082C31.3127 21.4511 31.6074 21.4203 31.8933 21.3631C31.9769 21.3455 32.0693 21.2927 32.1177 21.2267C32.5356 20.6636 33.2702 20.6592 33.6838 21.2179C33.7409 21.2927 33.8509 21.3499 33.9433 21.3719C34.2072 21.4291 34.4756 21.4599 34.7439 21.5082C35.0123 21.561 35.2982 21.9086 35.2982 22.1813C35.2982 22.8104 35.2938 23.4438 35.3026 24.0729C35.307 24.2357 35.2542 24.3456 35.1442 24.46C34.8099 24.7987 34.4888 25.1463 34.1544 25.5026ZM32.3068 27.9529C32.2936 28.0057 32.2805 28.0365 32.2849 28.0628C32.342 28.3576 32.2057 28.4852 31.9329 28.5951C31.4138 28.8107 31.1807 29.2462 31.1939 29.8049C31.2071 30.3592 31.5062 30.7023 32.0077 30.8826C32.2277 30.9618 32.4564 31.019 32.6764 31.0938C32.8787 31.1598 33.0811 31.2258 33.2746 31.305C33.4374 31.3709 33.5298 31.4985 33.5122 31.6833C33.4946 31.8724 33.3758 31.9824 33.2087 32.0132C33.0371 32.0484 32.8523 32.0792 32.6896 32.0396C32.3728 31.9648 32.0693 31.8372 31.735 31.7229C31.5854 31.9208 31.4138 32.1452 31.2071 32.4223C31.5194 32.5587 31.7878 32.6995 32.0737 32.7962C32.2365 32.849 32.3024 32.9194 32.2805 33.0866C32.2673 33.2053 32.2761 33.3285 32.2761 33.4649C32.5268 33.4649 32.738 33.4649 32.9491 33.4649C33.2526 33.4649 33.2658 33.4649 33.2482 33.1526C33.2394 32.959 33.2834 32.8534 33.4946 32.827C33.6046 32.8138 33.7145 32.7522 33.8157 32.6951C34.282 32.4399 34.4756 32.0308 34.4668 31.5117C34.458 31.019 34.2116 30.6803 33.7717 30.4823C33.5738 30.3943 33.3626 30.3284 33.1515 30.258C32.8875 30.17 32.6236 30.0908 32.3596 29.994C32.1969 29.9324 32.1309 29.8005 32.1441 29.6245C32.1573 29.4573 32.2585 29.343 32.4124 29.3166C32.5972 29.2858 32.7951 29.2682 32.9755 29.299C33.1955 29.3386 33.4022 29.4397 33.6354 29.5189C33.7805 29.2946 33.9301 29.057 34.1061 28.7799C33.9037 28.6875 33.7321 28.5731 33.5474 28.5423C33.2878 28.4984 33.2087 28.3796 33.2394 28.1332C33.2482 28.076 33.1691 27.9617 33.1207 27.9573C32.8567 27.9441 32.5796 27.9529 32.3068 27.9529Z" fill="#CAFF33"/>
<path d="M32.5438 43.1912C31.6068 43.1912 30.6654 43.1648 29.7284 43.2C29.0993 43.222 28.5626 43.0328 28.0567 42.6985C27.3397 42.219 26.6842 41.6735 26.1123 41.0225C25.2677 40.0591 24.4143 39.0957 23.5697 38.1323C22.879 37.3405 23.1914 36.1703 24.1768 35.8492C24.2911 35.8096 24.4231 35.7964 24.5419 35.7964C25.3249 35.792 26.1123 35.7876 26.8954 35.8008C27.0053 35.8008 27.1373 35.858 27.2165 35.9328C27.7532 36.4519 28.2811 36.9841 28.8046 37.5164C28.9101 37.622 29.0069 37.644 29.1565 37.622C29.4732 37.5736 29.7988 37.5296 30.1199 37.5296C31.6024 37.5208 33.0804 37.5252 34.5629 37.5252C35.0688 37.5252 35.4427 37.7848 35.5747 38.2159C35.7771 38.8669 35.302 39.4784 34.5761 39.4828C33.5951 39.4872 32.6097 39.4828 31.6288 39.4828C31.4528 39.4828 31.2768 39.4784 31.1009 39.4828C30.7841 39.4916 30.5774 39.694 30.573 39.9799C30.573 40.2702 30.7797 40.4902 31.0921 40.4902C32.6537 40.4946 34.2154 40.4946 35.7771 40.4902C36.0938 40.4902 36.3226 40.3142 36.5425 40.1031C37.5631 39.1221 38.5837 38.1411 39.6086 37.1645C40.0266 36.7642 40.5808 36.7466 40.9768 37.1029C41.4035 37.49 41.4123 38.1147 40.9812 38.5502C40.5281 39.0121 40.0661 39.4476 39.6086 39.8919C38.5969 40.8729 37.5851 41.8495 36.5777 42.8305C36.3314 43.068 36.0586 43.1912 35.7111 43.1912C34.6553 43.1868 33.5995 43.1912 32.5438 43.1912Z" fill="#CAFF33"/>
<path d="M27.3094 24.6008C27.7361 25.0275 28.1628 25.4542 28.5807 25.8721C28.3212 26.1316 28.0484 26.4044 27.7757 26.6727C27.371 26.2548 26.9443 25.8149 26.5352 25.3926C26.7771 25.1463 27.0498 24.8647 27.3094 24.6008Z" fill="#CAFF33"/>
<path d="M38.4169 24.6008C38.6764 24.8603 38.9447 25.1375 39.1955 25.3882C38.7776 25.8061 38.3421 26.2416 37.9198 26.6595C37.6646 26.4044 37.3963 26.1272 37.1279 25.8589C37.5458 25.4498 37.9769 25.0275 38.4169 24.6008Z" fill="#CAFF33"/>
<path d="M39.4288 31.5337C39.4288 31.1598 39.4244 30.8166 39.4332 30.4735C39.4332 30.4295 39.5168 30.3503 39.5608 30.3503C40.0975 30.3416 40.6298 30.3416 41.1665 30.3503C41.2105 30.3503 41.294 30.4163 41.294 30.4515C41.3028 30.8079 41.2984 31.1642 41.2984 31.5337C40.6694 31.5337 40.0623 31.5337 39.4288 31.5337Z" fill="#CAFF33"/>
<path d="M26.2837 31.5469C25.6766 31.5469 25.1091 31.5513 24.5373 31.5425C24.4933 31.5425 24.4229 31.4589 24.4185 31.4105C24.4097 31.1026 24.4053 30.7947 24.4185 30.4867C24.4185 30.4383 24.5065 30.3503 24.5549 30.3503C25.0827 30.3416 25.6106 30.3416 26.1385 30.3503C26.1869 30.3503 26.2749 30.4207 26.2749 30.4647C26.2881 30.8079 26.2837 31.1598 26.2837 31.5469Z" fill="#CAFF33"/>
</g>
<defs>
<linearGradient id="paint0_linear_108_4614" x1="32" y1="0" x2="32" y2="64" gradientUnits="userSpaceOnUse">
<stop stop-color="#CAFF33"/>
<stop offset="1" stop-color="#CAFF33" stop-opacity="0"/>
</linearGradient>
<linearGradient id="paint1_linear_108_4614" x1="32" y1="-23.7838" x2="32" y2="131.892" gradientUnits="userSpaceOnUse">
<stop stop-color="#CAFF33"/>
<stop offset="0.467671" stop-color="#CAFF33" stop-opacity="0"/>
</linearGradient>
<linearGradient id="paint2_linear_108_4614" x1="32" y1="-75.3514" x2="32" y2="99.4595" gradientUnits="userSpaceOnUse">
<stop stop-color="#CAFF33"/>
<stop offset="0.716291" stop-color="#CAFF33" stop-opacity="0"/>
</linearGradient>
<clipPath id="clip0_108_4614">
<rect width="18.1021" height="22.4" fill="white" transform="translate(23.2002 20.8)"/>
</clipPath>
</defs>
</svg>
