<svg width="64" height="64" viewBox="0 0 64 64" fill="none" xmlns="http://www.w3.org/2000/svg">
<rect width="64" height="64" rx="32" fill="url(#paint0_linear_112_4821)" fill-opacity="0.05"/>
<rect x="8" y="8" width="48" height="48" rx="24" fill="url(#paint1_linear_112_4821)" fill-opacity="0.1"/>
<rect x="8.5" y="8.5" width="47" height="47" rx="23.5" stroke="url(#paint2_linear_112_4821)" stroke-opacity="0.2"/>
<path fill-rule="evenodd" clip-rule="evenodd" d="M23 22.25C22.5858 22.25 22.25 22.5858 22.25 23C22.25 23.4142 22.5858 23.75 23 23.75V40.25H22.25C21.8358 40.25 21.5 40.5858 21.5 41C21.5 41.4142 21.8358 41.75 22.25 41.75H35V23.75C35.4142 23.75 35.75 23.4142 35.75 23C35.75 22.5858 35.4142 22.25 35 22.25H23ZM26.75 39.5V37.25C26.75 36.8358 27.0858 36.5 27.5 36.5H30.5C30.9142 36.5 31.25 36.8358 31.25 37.25V39.5C31.25 39.9142 30.9142 40.25 30.5 40.25H27.5C27.0858 40.25 26.75 39.9142 26.75 39.5ZM26 26.75C26 26.3358 26.3358 26 26.75 26H27.5C27.9142 26 28.25 26.3358 28.25 26.75C28.25 27.1642 27.9142 27.5 27.5 27.5H26.75C26.3358 27.5 26 27.1642 26 26.75ZM26.75 29C26.3358 29 26 29.3358 26 29.75C26 30.1642 26.3358 30.5 26.75 30.5H27.5C27.9142 30.5 28.25 30.1642 28.25 29.75C28.25 29.3358 27.9142 29 27.5 29H26.75ZM26 32.75C26 32.3358 26.3358 32 26.75 32H27.5C27.9142 32 28.25 32.3358 28.25 32.75C28.25 33.1642 27.9142 33.5 27.5 33.5H26.75C26.3358 33.5 26 33.1642 26 32.75ZM30.5 26C30.0858 26 29.75 26.3358 29.75 26.75C29.75 27.1642 30.0858 27.5 30.5 27.5H31.25C31.6642 27.5 32 27.1642 32 26.75C32 26.3358 31.6642 26 31.25 26H30.5ZM29.75 29.75C29.75 29.3358 30.0858 29 30.5 29H31.25C31.6642 29 32 29.3358 32 29.75C32 30.1642 31.6642 30.5 31.25 30.5H30.5C30.0858 30.5 29.75 30.1642 29.75 29.75ZM30.5 32C30.0858 32 29.75 32.3358 29.75 32.75C29.75 33.1642 30.0858 33.5 30.5 33.5H31.25C31.6642 33.5 32 33.1642 32 32.75C32 32.3358 31.6642 32 31.25 32H30.5Z" fill="#CAFF33"/>
<path fill-rule="evenodd" clip-rule="evenodd" d="M36.5 26.75V41.75H41.75C42.1642 41.75 42.5 41.4142 42.5 41C42.5 40.5858 42.1642 40.25 41.75 40.25H41V28.25C41.4142 28.25 41.75 27.9142 41.75 27.5C41.75 27.0858 41.4142 26.75 41 26.75H36.5ZM38 31.25C38 30.8358 38.3358 30.5 38.75 30.5H38.7575C39.1717 30.5 39.5075 30.8358 39.5075 31.25V31.2575C39.5075 31.6717 39.1717 32.0075 38.7575 32.0075H38.75C38.3358 32.0075 38 31.6717 38 31.2575V31.25ZM38.75 33.5C38.3358 33.5 38 33.8358 38 34.25V34.2575C38 34.6717 38.3358 35.0075 38.75 35.0075H38.7575C39.1717 35.0075 39.5075 34.6717 39.5075 34.2575V34.25C39.5075 33.8358 39.1717 33.5 38.7575 33.5H38.75ZM38 37.25C38 36.8358 38.3358 36.5 38.75 36.5H38.7575C39.1717 36.5 39.5075 36.8358 39.5075 37.25V37.2575C39.5075 37.6717 39.1717 38.0075 38.7575 38.0075H38.75C38.3358 38.0075 38 37.6717 38 37.2575V37.25Z" fill="#CAFF33"/>
<defs>
<linearGradient id="paint0_linear_112_4821" x1="32" y1="0" x2="32" y2="64" gradientUnits="userSpaceOnUse">
<stop stop-color="#CAFF33"/>
<stop offset="1" stop-color="#CAFF33" stop-opacity="0"/>
</linearGradient>
<linearGradient id="paint1_linear_112_4821" x1="32" y1="-23.7838" x2="32" y2="131.892" gradientUnits="userSpaceOnUse">
<stop stop-color="#CAFF33"/>
<stop offset="0.467671" stop-color="#CAFF33" stop-opacity="0"/>
</linearGradient>
<linearGradient id="paint2_linear_112_4821" x1="32" y1="-75.3514" x2="32" y2="99.4595" gradientUnits="userSpaceOnUse">
<stop stop-color="#CAFF33"/>
<stop offset="0.716291" stop-color="#CAFF33" stop-opacity="0"/>
</linearGradient>
</defs>
</svg>
