<svg width="64" height="64" viewBox="0 0 64 64" fill="none" xmlns="http://www.w3.org/2000/svg">
<rect width="64" height="64" rx="32" fill="url(#paint0_linear_108_4644)" fill-opacity="0.05"/>
<rect x="8" y="8" width="48" height="48" rx="24" fill="url(#paint1_linear_108_4644)" fill-opacity="0.1"/>
<rect x="8.5" y="8.5" width="47" height="47" rx="23.5" stroke="url(#paint2_linear_108_4644)" stroke-opacity="0.2"/>
<path d="M31.25 24.5329C29.7345 23.5628 27.9325 23 26 23C24.8618 23 23.7676 23.1954 22.7501 23.555C22.4504 23.6609 22.25 23.9443 22.25 24.2621V38.5121C22.25 38.7556 22.3682 38.9839 22.567 39.1245C22.7657 39.265 23.0204 39.3004 23.2499 39.2192C24.1091 38.9156 25.0344 38.75 26 38.75C27.995 38.75 29.8232 39.4573 31.25 40.6357V24.5329Z" fill="#CAFF33"/>
<path d="M32.75 40.6357C34.1768 39.4573 36.005 38.75 38 38.75C38.9656 38.75 39.8909 38.9156 40.7501 39.2192C40.9796 39.3004 41.2343 39.265 41.433 39.1245C41.6318 38.9839 41.75 38.7556 41.75 38.5121V24.2621C41.75 23.9443 41.5496 23.6609 41.2499 23.555C40.2324 23.1954 39.1382 23 38 23C36.0675 23 34.2655 23.5628 32.75 24.5329V40.6357Z" fill="#CAFF33"/>
<defs>
<linearGradient id="paint0_linear_108_4644" x1="32" y1="0" x2="32" y2="64" gradientUnits="userSpaceOnUse">
<stop stop-color="#CAFF33"/>
<stop offset="1" stop-color="#CAFF33" stop-opacity="0"/>
</linearGradient>
<linearGradient id="paint1_linear_108_4644" x1="32" y1="-23.7838" x2="32" y2="131.892" gradientUnits="userSpaceOnUse">
<stop stop-color="#CAFF33"/>
<stop offset="0.467671" stop-color="#CAFF33" stop-opacity="0"/>
</linearGradient>
<linearGradient id="paint2_linear_108_4644" x1="32" y1="-75.3514" x2="32" y2="99.4595" gradientUnits="userSpaceOnUse">
<stop stop-color="#CAFF33"/>
<stop offset="0.716291" stop-color="#CAFF33" stop-opacity="0"/>
</linearGradient>
</defs>
</svg>
