<svg width="64" height="64" viewBox="0 0 64 64" fill="none" xmlns="http://www.w3.org/2000/svg">
<rect width="64" height="64" rx="32" fill="url(#paint0_linear_112_4840)" fill-opacity="0.05"/>
<rect x="8" y="8" width="48" height="48" rx="24" fill="url(#paint1_linear_112_4840)" fill-opacity="0.1"/>
<rect x="8.5" y="8.5" width="47" height="47" rx="23.5" stroke="url(#paint2_linear_112_4840)" stroke-opacity="0.2"/>
<path d="M30.4636 28.7463C30.6908 28.5658 30.9607 28.4345 31.25 28.3525V31.1474C30.9552 31.0637 30.686 30.9304 30.4636 30.7537C30.0699 30.441 29.9175 30.073 29.9175 29.75C29.9175 29.427 30.0699 29.059 30.4636 28.7463Z" fill="#CAFF33"/>
<path d="M32.75 35.6616V32.8383C33.0972 32.9228 33.4138 33.0658 33.6713 33.259C34.0978 33.5788 34.25 33.9448 34.25 34.25C34.25 34.5551 34.0978 34.9211 33.6713 35.241C33.4138 35.4342 33.0972 35.5772 32.75 35.6616Z" fill="#CAFF33"/>
<path fill-rule="evenodd" clip-rule="evenodd" d="M32 22.25C26.6152 22.25 22.25 26.6152 22.25 32C22.25 37.3848 26.6152 41.75 32 41.75C37.3848 41.75 41.75 37.3848 41.75 32C41.75 26.6152 37.3848 22.25 32 22.25ZM32.75 26C32.75 25.5858 32.4142 25.25 32 25.25C31.5858 25.25 31.25 25.5858 31.25 26V26.8156C30.6231 26.9267 30.0253 27.1787 29.5306 27.5718C28.8182 28.1377 28.4175 28.9213 28.4175 29.75C28.4175 30.5787 28.8182 31.3623 29.5306 31.9282C30.033 32.3274 30.6327 32.575 31.25 32.6843V35.6616C30.9028 35.5771 30.5864 35.4341 30.3289 35.241L29.45 34.5818C29.1186 34.3333 28.6485 34.4004 28.4 34.7318C28.1515 35.0631 28.2186 35.5332 28.55 35.7818L29.4289 36.441C29.9621 36.8409 30.5979 37.0856 31.25 37.1903V38C31.25 38.4142 31.5858 38.75 32 38.75C32.4142 38.75 32.75 38.4142 32.75 38V37.1904C33.4021 37.0856 34.0381 36.8409 34.5714 36.441C35.3164 35.8821 35.75 35.0965 35.75 34.25C35.75 33.4034 35.3164 32.6178 34.5714 32.059C34.0381 31.659 33.4021 31.4143 32.75 31.3096V28.3526C33.0392 28.4346 33.309 28.5658 33.5361 28.7463L33.951 29.0759C34.2753 29.3335 34.7471 29.2794 35.0048 28.9551C35.2624 28.6308 35.2084 28.159 34.884 27.9013L34.4691 27.5718C33.9745 27.1788 33.3768 26.9268 32.75 26.8157V26Z" fill="#CAFF33"/>
<defs>
<linearGradient id="paint0_linear_112_4840" x1="32" y1="0" x2="32" y2="64" gradientUnits="userSpaceOnUse">
<stop stop-color="#CAFF33"/>
<stop offset="1" stop-color="#CAFF33" stop-opacity="0"/>
</linearGradient>
<linearGradient id="paint1_linear_112_4840" x1="32" y1="-23.7838" x2="32" y2="131.892" gradientUnits="userSpaceOnUse">
<stop stop-color="#CAFF33"/>
<stop offset="0.467671" stop-color="#CAFF33" stop-opacity="0"/>
</linearGradient>
<linearGradient id="paint2_linear_112_4840" x1="32" y1="-75.3514" x2="32" y2="99.4595" gradientUnits="userSpaceOnUse">
<stop stop-color="#CAFF33"/>
<stop offset="0.716291" stop-color="#CAFF33" stop-opacity="0"/>
</linearGradient>
</defs>
</svg>
