<svg width="21" height="21" viewBox="0 0 21 21" fill="none" xmlns="http://www.w3.org/2000/svg">
<path fill-rule="evenodd" clip-rule="evenodd" d="M1.75 4.25C1.75 2.86929 2.86929 1.75 4.25 1.75H5.39302C6.11 1.75 6.73498 2.23796 6.90887 2.93354L7.83037 6.61952C7.98284 7.22942 7.75495 7.87129 7.25202 8.24849L6.174 9.057C6.06206 9.14096 6.03772 9.2639 6.06917 9.34974C7.01542 11.9329 9.0671 13.9846 11.6503 14.9308C11.7361 14.9623 11.859 14.9379 11.943 14.826L12.7515 13.748C13.1287 13.2451 13.7706 13.0172 14.3805 13.1696L18.0665 14.0911C18.762 14.265 19.25 14.89 19.25 15.607V16.75C19.25 18.1307 18.1307 19.25 16.75 19.25H14.875C7.62626 19.25 1.75 13.3737 1.75 6.125V4.25Z" fill="#CAFF33"/>
</svg>
