<svg width="13" height="13" viewBox="0 0 13 13" fill="none" xmlns="http://www.w3.org/2000/svg">
<path fill-rule="evenodd" clip-rule="evenodd" d="M6.83528 2.93945C7.04828 2.93945 7.22095 3.11117 7.22095 3.323V6.00785L9.92063 6.00785C10.1336 6.00785 10.3063 6.17957 10.3063 6.3914C10.3063 6.60323 10.1336 6.77495 9.92063 6.77495H7.22095V9.4598C7.22095 9.67163 7.04828 9.84335 6.83528 9.84335C6.62228 9.84335 6.44961 9.67163 6.44961 9.4598V6.77495H3.74993C3.53693 6.77495 3.36426 6.60323 3.36426 6.3914C3.36426 6.17957 3.53693 6.00785 3.74993 6.00785L6.44961 6.00785V3.323C6.44961 3.11117 6.62228 2.93945 6.83528 2.93945Z" fill="#1A1A1A"/>
</svg>
