<svg width="64" height="64" viewBox="0 0 64 64" fill="none" xmlns="http://www.w3.org/2000/svg">
<rect width="64" height="64" rx="32" fill="url(#paint0_linear_112_4827)" fill-opacity="0.05"/>
<rect x="8" y="8" width="48" height="48" rx="24" fill="url(#paint1_linear_112_4827)" fill-opacity="0.1"/>
<rect x="8.5" y="8.5" width="47" height="47" rx="23.5" stroke="url(#paint2_linear_112_4827)" stroke-opacity="0.2"/>
<path d="M32 27.5C30.7574 27.5 29.75 28.5074 29.75 29.75C29.75 30.9926 30.7574 32 32 32C33.2426 32 34.25 30.9926 34.25 29.75C34.25 28.5074 33.2426 27.5 32 27.5Z" fill="#CAFF33"/>
<path fill-rule="evenodd" clip-rule="evenodd" d="M21.5 24.875C21.5 23.8395 22.3395 23 23.375 23H40.625C41.6605 23 42.5 23.8395 42.5 24.875V34.625C42.5 35.6605 41.6605 36.5 40.625 36.5H23.375C22.3395 36.5 21.5 35.6605 21.5 34.625V24.875ZM28.25 29.75C28.25 27.6789 29.9289 26 32 26C34.0711 26 35.75 27.6789 35.75 29.75C35.75 31.8211 34.0711 33.5 32 33.5C29.9289 33.5 28.25 31.8211 28.25 29.75ZM38.75 29C38.3358 29 38 29.3358 38 29.75V29.7575C38 30.1717 38.3358 30.5075 38.75 30.5075H38.7575C39.1717 30.5075 39.5075 30.1717 39.5075 29.7575V29.75C39.5075 29.3358 39.1717 29 38.7575 29H38.75ZM24.5 29.75C24.5 29.3358 24.8358 29 25.25 29H25.2575C25.6717 29 26.0075 29.3358 26.0075 29.75V29.7575C26.0075 30.1717 25.6717 30.5075 25.2575 30.5075H25.25C24.8358 30.5075 24.5 30.1717 24.5 29.7575V29.75Z" fill="#CAFF33"/>
<path d="M22.25 38C21.8358 38 21.5 38.3358 21.5 38.75C21.5 39.1642 21.8358 39.5 22.25 39.5C27.65 39.5 32.8802 40.2222 37.8498 41.5749C39.0404 41.899 40.25 41.0168 40.25 39.7551V38.75C40.25 38.3358 39.9142 38 39.5 38H22.25Z" fill="#CAFF33"/>
<defs>
<linearGradient id="paint0_linear_112_4827" x1="32" y1="0" x2="32" y2="64" gradientUnits="userSpaceOnUse">
<stop stop-color="#CAFF33"/>
<stop offset="1" stop-color="#CAFF33" stop-opacity="0"/>
</linearGradient>
<linearGradient id="paint1_linear_112_4827" x1="32" y1="-23.7838" x2="32" y2="131.892" gradientUnits="userSpaceOnUse">
<stop stop-color="#CAFF33"/>
<stop offset="0.467671" stop-color="#CAFF33" stop-opacity="0"/>
</linearGradient>
<linearGradient id="paint2_linear_112_4827" x1="32" y1="-75.3514" x2="32" y2="99.4595" gradientUnits="userSpaceOnUse">
<stop stop-color="#CAFF33"/>
<stop offset="0.716291" stop-color="#CAFF33" stop-opacity="0"/>
</linearGradient>
</defs>
</svg>
