<svg width="64" height="64" viewBox="0 0 64 64" fill="none" xmlns="http://www.w3.org/2000/svg">
<rect width="64" height="64" rx="32" fill="url(#paint0_linear_108_4627)" fill-opacity="0.05"/>
<rect x="8" y="8" width="48" height="48" rx="24" fill="url(#paint1_linear_108_4627)" fill-opacity="0.1"/>
<rect x="8.5" y="8.5" width="47" height="47" rx="23.5" stroke="url(#paint2_linear_108_4627)" stroke-opacity="0.2"/>
<g clip-path="url(#clip0_108_4627)">
<path d="M39.7262 31.2148C39.7262 31.8131 39.7343 32.4074 39.7222 33.0057C39.7142 33.3284 39.8065 33.6118 39.9752 33.8795C40.4088 34.5801 40.9829 35.1666 41.5651 35.7452C41.7819 35.9616 42.0067 36.1663 42.2355 36.3671C42.348 36.4655 42.4001 36.5678 42.4001 36.7213C42.3921 37.3786 42.3921 38.032 42.3961 38.6893C42.4001 39.2364 42.1593 39.6458 41.6574 39.8741C41.1435 40.1063 40.6617 40.0079 40.2401 39.6497C39.3689 38.9019 38.5017 38.1501 37.6345 37.4022C37.0443 36.8906 36.4581 36.371 35.8559 35.8751C35.6431 35.6979 35.3902 35.568 35.1453 35.4342C34.7839 35.2374 34.3945 35.1311 33.9729 35.1469C33.6678 35.1587 33.3546 35.1626 33.0495 35.139C32.6039 35.1036 32.2867 34.8005 32.2265 34.3833C32.1703 34.0172 32.3911 33.6236 32.7604 33.4819C32.901 33.4268 33.0575 33.4032 33.2101 33.4032C34.3664 33.3954 35.5227 33.3993 36.683 33.3993C37.1166 33.3993 37.2732 33.2458 37.2732 32.8168C37.2732 31.9508 37.2691 31.0849 37.2732 30.219C37.2772 29.8883 37.1607 29.6286 36.9078 29.4042C35.4504 28.1211 34.001 26.83 32.5477 25.539C32.1582 25.1926 32.114 24.681 32.4393 24.307C32.7604 23.9331 33.2864 23.8977 33.6999 24.2126C35.5588 25.6295 37.4137 27.0465 39.2806 28.4556C39.5897 28.6878 39.7343 28.9712 39.7303 29.3452C39.7222 29.9671 39.7262 30.589 39.7262 31.2148Z" fill="#CAFF33"/>
<path d="M20.804 37.7644C20.804 37.4101 20.808 37.0559 20.8 36.7017C20.796 36.5639 20.8522 36.4734 20.9445 36.3789C21.5508 35.7688 22.149 35.1509 22.7432 34.529C22.8677 34.3991 22.96 34.2456 23.0684 34.1039C23.3535 33.7221 23.486 33.3048 23.4739 32.8168C23.4498 31.6911 23.4779 30.5614 23.4619 29.4318C23.4538 28.987 23.6144 28.6721 23.9798 28.3966C25.8347 27.0111 27.6694 25.602 29.5123 24.1969C29.8977 23.9016 30.4277 23.9489 30.7408 24.3031C31.062 24.6652 31.0339 25.1848 30.6605 25.5233C30.0944 26.035 29.5203 26.5349 28.9502 27.0426C28.0468 27.8416 27.1435 28.6446 26.2402 29.4436C26.0274 29.6325 25.923 29.8608 25.923 30.1363C25.923 31.0534 25.919 31.9705 25.923 32.8916C25.923 33.2301 26.0996 33.3954 26.4489 33.3954C27.6413 33.3993 28.8297 33.3954 30.0222 33.3993C30.5842 33.3993 30.9777 33.785 30.9657 34.3046C30.9576 34.7021 30.6645 35.0603 30.259 35.1194C30.0181 35.1548 29.7652 35.1705 29.5203 35.1469C28.6973 35.0682 28.0027 35.3634 27.3884 35.8436C26.7621 36.3317 26.1759 36.8748 25.5777 37.3905C24.6984 38.1462 23.8232 38.9098 22.9399 39.6616C22.2253 40.2716 21.1694 40.004 20.8642 39.1341C20.8241 39.0239 20.8121 38.9019 20.808 38.7878C20.8 38.4493 20.804 38.1068 20.804 37.7644Z" fill="#CAFF33"/>
<path d="M32.1704 32.0296C32.1704 32.2185 32.1704 32.3956 32.1704 32.5885C31.8331 32.5885 31.5119 32.5885 31.1627 32.5885C31.1627 32.435 31.1586 32.2854 31.1627 32.1358C31.1667 32.0256 31.1345 31.9784 31.0181 31.9508C30.6849 31.8721 30.3757 31.7383 30.0867 31.51C30.2713 31.2699 30.448 31.0416 30.6086 30.8291C30.9137 30.9432 31.1908 31.077 31.4838 31.1439C31.6966 31.1912 31.9335 31.1597 32.1543 31.1243C32.3229 31.0967 32.4313 30.9668 32.4434 30.7897C32.4595 30.6086 32.3631 30.4827 32.2025 30.4197C31.9295 30.3174 31.6444 30.2387 31.3674 30.1481C31.1667 30.0812 30.9579 30.0222 30.7612 29.9395C30.2995 29.7466 30.0545 29.4042 30.0425 28.9004C30.0305 28.373 30.2312 27.9479 30.713 27.7196C31.0261 27.57 31.2951 27.4598 31.1386 27.0229C31.4798 27.0229 31.7769 27.019 32.078 27.0308C32.1102 27.0308 32.1664 27.1292 32.1664 27.1843C32.1864 27.5188 32.1864 27.511 32.5036 27.6212C32.6883 27.6842 32.865 27.7747 33.0657 27.8652C32.8971 28.1211 32.7606 28.3454 32.608 28.558C32.5839 28.5895 32.4876 28.5855 32.4314 28.5698C32.1664 28.5029 31.9094 28.4163 31.6444 28.3651C31.54 28.3454 31.4196 28.3769 31.3112 28.4045C31.1506 28.4478 31.0422 28.554 31.0302 28.7272C31.0181 28.8965 31.0944 29.0264 31.251 29.0893C31.4557 29.172 31.6645 29.235 31.8733 29.3019C32.1021 29.3767 32.339 29.4318 32.5598 29.5144C33.1982 29.7585 33.4551 30.1442 33.423 30.7779C33.3909 31.3604 33.0256 31.7934 32.4233 31.9626C32.3511 31.9863 32.2748 32.0059 32.1704 32.0296Z" fill="#CAFF33"/>
</g>
<defs>
<linearGradient id="paint0_linear_108_4627" x1="32" y1="0" x2="32" y2="64" gradientUnits="userSpaceOnUse">
<stop stop-color="#CAFF33"/>
<stop offset="1" stop-color="#CAFF33" stop-opacity="0"/>
</linearGradient>
<linearGradient id="paint1_linear_108_4627" x1="32" y1="-23.7838" x2="32" y2="131.892" gradientUnits="userSpaceOnUse">
<stop stop-color="#CAFF33"/>
<stop offset="0.467671" stop-color="#CAFF33" stop-opacity="0"/>
</linearGradient>
<linearGradient id="paint2_linear_108_4627" x1="32" y1="-75.3514" x2="32" y2="99.4595" gradientUnits="userSpaceOnUse">
<stop stop-color="#CAFF33"/>
<stop offset="0.716291" stop-color="#CAFF33" stop-opacity="0"/>
</linearGradient>
<clipPath id="clip0_108_4627">
<rect width="21.6" height="16" fill="white" transform="translate(20.7998 24)"/>
</clipPath>
</defs>
</svg>
