<svg width="64" height="64" viewBox="0 0 64 64" fill="none" xmlns="http://www.w3.org/2000/svg">
<rect width="64" height="64" rx="32" fill="url(#paint0_linear_108_4638)" fill-opacity="0.05"/>
<rect x="8" y="8" width="48" height="48" rx="24" fill="url(#paint1_linear_108_4638)" fill-opacity="0.1"/>
<rect x="8.5" y="8.5" width="47" height="47" rx="23.5" stroke="url(#paint2_linear_108_4638)" stroke-opacity="0.2"/>
<path d="M31.5841 22.376C31.836 22.208 32.1642 22.208 32.4161 22.376L41.4161 28.376C41.7608 28.6057 41.8539 29.0714 41.6241 29.416C41.3944 29.7607 40.9287 29.8538 40.5841 29.624L32.0001 23.9014L23.4161 29.624C23.0715 29.8538 22.6058 29.7607 22.376 29.416C22.1463 29.0714 22.2394 28.6057 22.5841 28.376L31.5841 22.376Z" fill="#CAFF33"/>
<path fill-rule="evenodd" clip-rule="evenodd" d="M40.25 30.3325V40.25H41C41.4142 40.25 41.75 40.5858 41.75 41C41.75 41.4142 41.4142 41.75 41 41.75H23C22.5858 41.75 22.25 41.4142 22.25 41C22.25 40.5858 22.5858 40.25 23 40.25H23.75V30.3325C23.75 29.9632 24.0189 29.6488 24.3837 29.5916C26.8658 29.2021 29.4095 29 32 29C34.5905 29 37.1342 29.2021 39.6163 29.5916C39.9811 29.6488 40.25 29.9632 40.25 30.3325ZM32.75 32.75C32.75 32.3358 32.4142 32 32 32C31.5858 32 31.25 32.3358 31.25 32.75V39.5C31.25 39.9142 31.5858 40.25 32 40.25C32.4142 40.25 32.75 39.9142 32.75 39.5V32.75ZM35.75 32C36.1642 32 36.5 32.3358 36.5 32.75V39.5C36.5 39.9142 36.1642 40.25 35.75 40.25C35.3358 40.25 35 39.9142 35 39.5V32.75C35 32.3358 35.3358 32 35.75 32ZM29 32.75C29 32.3358 28.6642 32 28.25 32C27.8358 32 27.5 32.3358 27.5 32.75V39.5C27.5 39.9142 27.8358 40.25 28.25 40.25C28.6642 40.25 29 39.9142 29 39.5V32.75Z" fill="#CAFF33"/>
<path d="M32 27.875C32.6213 27.875 33.125 27.3713 33.125 26.75C33.125 26.1287 32.6213 25.625 32 25.625C31.3787 25.625 30.875 26.1287 30.875 26.75C30.875 27.3713 31.3787 27.875 32 27.875Z" fill="#CAFF33"/>
<defs>
<linearGradient id="paint0_linear_108_4638" x1="32" y1="0" x2="32" y2="64" gradientUnits="userSpaceOnUse">
<stop stop-color="#CAFF33"/>
<stop offset="1" stop-color="#CAFF33" stop-opacity="0"/>
</linearGradient>
<linearGradient id="paint1_linear_108_4638" x1="32" y1="-23.7838" x2="32" y2="131.892" gradientUnits="userSpaceOnUse">
<stop stop-color="#CAFF33"/>
<stop offset="0.467671" stop-color="#CAFF33" stop-opacity="0"/>
</linearGradient>
<linearGradient id="paint2_linear_108_4638" x1="32" y1="-75.3514" x2="32" y2="99.4595" gradientUnits="userSpaceOnUse">
<stop stop-color="#CAFF33"/>
<stop offset="0.716291" stop-color="#CAFF33" stop-opacity="0"/>
</linearGradient>
</defs>
</svg>
