<svg width="13" height="13" viewBox="0 0 13 13" fill="none" xmlns="http://www.w3.org/2000/svg">
<path fill-rule="evenodd" clip-rule="evenodd" d="M8.36945 1.71129C8.19553 1.89756 8.20637 2.18878 8.39367 2.36175L9.68979 3.55867L4.38909 3.55867C4.13349 3.55867 3.92629 3.76473 3.92629 4.01893C3.92629 4.27312 4.13349 4.47919 4.38909 4.47919L9.68979 4.47919L8.39367 5.67611C8.20637 5.84908 8.19553 6.1403 8.36945 6.32657C8.54337 6.51284 8.8362 6.52363 9.0235 6.35066L11.1833 4.3562C11.2776 4.26912 11.3311 4.14691 11.3311 4.01893C11.3311 3.89094 11.2776 3.76874 11.1833 3.68165L9.0235 1.6872C8.8362 1.51423 8.54337 1.52501 8.36945 1.71129ZM4.4197 6.62072C4.24577 6.43445 3.95294 6.42366 3.76564 6.59663L1.6059 8.59109C1.51159 8.67818 1.45801 8.80038 1.45801 8.92836C1.45801 9.05635 1.51159 9.17855 1.6059 9.26564L3.76564 11.2601C3.95294 11.4331 4.24577 11.4223 4.4197 11.236C4.59362 11.0497 4.58277 10.7585 4.39547 10.5855L3.09936 9.38862H8.40005C8.65565 9.38862 8.86286 9.18256 8.86286 8.92836C8.86286 8.67417 8.65565 8.4681 8.40005 8.4681H3.09936L4.39547 7.27118C4.58277 7.09821 4.59362 6.80699 4.4197 6.62072Z" fill="#1C1C1C"/>
</svg>
