<svg width="20" height="18" viewBox="0 0 20 18" fill="none" xmlns="http://www.w3.org/2000/svg">
<path d="M6.2918 17.1246C13.8371 17.1246 17.9652 10.8719 17.9652 5.45118C17.9652 5.2754 17.9613 5.09572 17.9535 4.91993C18.7566 4.33918 19.4496 3.61985 20 2.79572C19.2521 3.12847 18.458 3.34579 17.6449 3.44025C18.5011 2.92706 19.1421 2.12086 19.4492 1.17111C18.6438 1.64843 17.763 1.98514 16.8445 2.16681C16.2257 1.50927 15.4075 1.0739 14.5164 0.92801C13.6253 0.782122 12.711 0.933842 11.9148 1.35971C11.1186 1.78559 10.4848 2.46189 10.1115 3.28406C9.73825 4.10623 9.64619 5.02848 9.84961 5.90822C8.21874 5.82638 6.62328 5.40272 5.16665 4.66472C3.71002 3.92671 2.42474 2.89083 1.39414 1.62423C0.870333 2.52734 0.710047 3.596 0.945859 4.61304C1.18167 5.63008 1.79589 6.51917 2.66367 7.09962C2.01219 7.07894 1.37498 6.90353 0.804688 6.5879V6.63868C0.804104 7.58643 1.13175 8.50512 1.73192 9.23861C2.3321 9.97209 3.16777 10.4751 4.09687 10.6621C3.49338 10.8272 2.85999 10.8513 2.2457 10.7324C2.50788 11.5475 3.01798 12.2604 3.70481 12.7716C4.39164 13.2828 5.22093 13.5668 6.07695 13.584C4.62369 14.7256 2.82848 15.3447 0.980469 15.3418C0.652739 15.3413 0.325333 15.3212 0 15.2817C1.87738 16.4861 4.06128 17.1258 6.2918 17.1246Z" fill="#262626"/>
</svg>
