<svg width="157" height="41" viewBox="0 0 157 41" fill="none" xmlns="http://www.w3.org/2000/svg">
<path d="M10.4167 20.5L20.4167 10.5L30.4167 20.5L20.4167 30.5L10.4167 20.5Z" fill="#CAFF33"/>
<path d="M37.0834 13.8334L30.4167 20.5V10.5H20.4167L27.0834 3.83337H37.0834V13.8334Z" fill="#CAFF33"/>
<path d="M37.0834 27.1667L30.4167 20.5V30.5H20.4167L27.0834 37.1667H37.0834V27.1667Z" fill="#CAFF33"/>
<path d="M3.75003 27.1667L10.4167 20.5V30.5H20.4167L13.75 37.1667H3.75003L3.75003 27.1667Z" fill="#CAFF33"/>
<path d="M3.75003 13.8334L10.4167 20.5V10.5H20.4167L13.75 3.83337H3.75003L3.75003 13.8334Z" fill="#CAFF33"/>
<path d="M59.7704 11.8333L53.6252 22.6841V29.8323H50.7289V22.6841L44.5837 11.8333H47.8829L52.1896 19.8043L56.4711 11.8333H59.7704Z" fill="white"/>
<path d="M64.9251 30.1666C63.0781 30.1666 61.5083 29.5152 60.2154 28.2124C58.9226 26.9096 58.2762 25.3068 58.2762 23.4041C58.2762 21.5013 58.9226 19.8985 60.2154 18.5958C61.5083 17.293 63.0781 16.6416 64.9251 16.6416C66.7888 16.6416 68.3586 17.293 69.6347 18.5958C70.9275 19.8985 71.574 21.5013 71.574 23.4041C71.574 25.3068 70.9275 26.9096 69.6347 28.2124C68.3586 29.5152 66.7888 30.1666 64.9251 30.1666ZM62.1295 26.3096C62.8851 27.081 63.8169 27.4667 64.9251 27.4667C66.0332 27.4667 66.9651 27.081 67.7206 26.3096C68.4762 25.5383 68.854 24.5697 68.854 23.4041C68.854 22.2384 68.4762 21.2699 67.7206 20.4985C66.9651 19.7271 66.0332 19.3414 64.9251 19.3414C63.8169 19.3414 62.8851 19.7271 62.1295 20.4985C61.3739 21.2699 60.9962 22.2384 60.9962 23.4041C60.9962 24.5697 61.3739 25.5383 62.1295 26.3096Z" fill="white"/>
<path d="M82.5209 16.9758H85.2409V29.8323H82.5209V28.1867C81.6981 29.5066 80.3969 30.1666 78.6172 30.1666C77.1732 30.1666 76.0063 29.6952 75.1164 28.7524C74.2265 27.8096 73.7816 26.5153 73.7816 24.8697V16.9758H76.5016V24.5869C76.5016 25.5468 76.7534 26.2839 77.2572 26.7982C77.7609 27.3124 78.4493 27.5696 79.3223 27.5696C80.2794 27.5696 81.0517 27.2696 81.6394 26.6696C82.227 26.0525 82.5209 25.1183 82.5209 23.8669V16.9758Z" fill="white"/>
<path d="M91.1415 19.1357C91.8299 17.5415 93.1227 16.7444 95.02 16.7444V19.7528C93.979 19.6843 93.0723 19.9414 92.3 20.5242C91.5276 21.0899 91.1415 22.0327 91.1415 23.3527V29.8323H88.4215V16.9758H91.1415V19.1357Z" fill="white"/>
<path d="M107.582 20.4985C108.355 20.9099 108.959 21.4756 109.396 22.1956C109.832 22.9155 110.05 23.7469 110.05 24.6897C110.05 26.1639 109.538 27.3896 108.514 28.3667C107.49 29.3438 106.239 29.8323 104.762 29.8323H97.206V11.8333H104.207C105.651 11.8333 106.869 12.3132 107.859 13.2732C108.867 14.216 109.37 15.3988 109.37 16.8216C109.37 18.3815 108.774 19.6071 107.582 20.4985ZM104.207 14.6103H100.102V19.3414H104.207C104.846 19.3414 105.383 19.1186 105.819 18.6729C106.256 18.2101 106.474 17.6444 106.474 16.9758C106.474 16.3073 106.256 15.7502 105.819 15.3045C105.383 14.8417 104.846 14.6103 104.207 14.6103ZM104.762 27.0553C105.433 27.0553 105.996 26.8153 106.449 26.3354C106.919 25.8382 107.154 25.2383 107.154 24.5355C107.154 23.8326 106.919 23.2412 106.449 22.7613C105.996 22.2641 105.433 22.0156 104.762 22.0156H100.102V27.0553H104.762Z" fill="white"/>
<path d="M122.498 16.9758H125.218V29.8323H122.498V27.981C121.474 29.4381 120.005 30.1666 118.09 30.1666C116.361 30.1666 114.884 29.5152 113.658 28.2124C112.432 26.8925 111.819 25.2897 111.819 23.4041C111.819 21.5013 112.432 19.8985 113.658 18.5958C114.884 17.293 116.361 16.6416 118.09 16.6416C120.005 16.6416 121.474 17.3615 122.498 18.8015V16.9758ZM115.673 26.3611C116.428 27.1325 117.377 27.5182 118.519 27.5182C119.66 27.5182 120.609 27.1325 121.365 26.3611C122.12 25.5725 122.498 24.5869 122.498 23.4041C122.498 22.2213 122.12 21.2442 121.365 20.4728C120.609 19.6843 119.66 19.29 118.519 19.29C117.377 19.29 116.428 19.6843 115.673 20.4728C114.917 21.2442 114.539 22.2213 114.539 23.4041C114.539 24.5869 114.917 25.5725 115.673 26.3611Z" fill="white"/>
<path d="M135.012 16.6416C136.456 16.6416 137.623 17.113 138.513 18.0558C139.403 18.9986 139.847 20.2928 139.847 21.9384V29.8323H137.127V22.2213C137.127 21.2613 136.876 20.5242 136.372 20.01C135.868 19.4957 135.18 19.2386 134.307 19.2386C133.35 19.2386 132.577 19.5471 131.99 20.1642C131.402 20.7642 131.108 21.6899 131.108 22.9412V29.8323H128.388V16.9758H131.108V18.6215C131.931 17.3015 133.232 16.6416 135.012 16.6416Z" fill="white"/>
<path d="M156.25 29.8323H152.8L145.849 21.2699V29.8323H142.953V11.8333H145.849V19.9071L152.548 11.8333H155.998L148.871 20.6014L156.25 29.8323Z" fill="white"/>
</svg>
