<svg width="102" height="27" viewBox="0 0 102 27" fill="none" xmlns="http://www.w3.org/2000/svg">
<path d="M6.5212 13.6751L13.0212 7.17513L19.5212 13.6751L13.0212 20.1751L6.5212 13.6751Z" fill="#CAFF33"/>
<path d="M23.8545 9.3418L19.5212 13.6751V7.17513H13.0212L17.3545 2.8418H23.8545V9.3418Z" fill="#CAFF33"/>
<path d="M23.8545 18.0085L19.5212 13.6751V20.1751H13.0212L17.3545 24.5085H23.8545V18.0085Z" fill="#CAFF33"/>
<path d="M2.18787 18.0085L6.5212 13.6751V20.1751H13.0212L8.68787 24.5085H2.18787L2.18787 18.0085Z" fill="#CAFF33"/>
<path d="M2.18787 9.3418L6.5212 13.6751V7.17513H13.0212L8.68787 2.8418H2.18787L2.18787 9.3418Z" fill="#CAFF33"/>
<path d="M38.6012 8.04175L34.6068 15.0948V19.7411H32.7242V15.0948L28.7299 8.04175H30.8744L33.6737 13.2229L36.4567 8.04175H38.6012Z" fill="white"/>
<path d="M41.9518 19.9584C40.7513 19.9584 39.7308 19.535 38.8905 18.6882C38.0501 17.8414 37.63 16.7996 37.63 15.5628C37.63 14.326 38.0501 13.2842 38.8905 12.4374C39.7308 11.5906 40.7513 11.1672 41.9518 11.1672C43.1632 11.1672 44.1836 11.5906 45.013 12.4374C45.8534 13.2842 46.2735 14.326 46.2735 15.5628C46.2735 16.7996 45.8534 17.8414 45.013 18.6882C44.1836 19.535 43.1632 19.9584 41.9518 19.9584ZM40.1346 17.4514C40.6258 17.9528 41.2315 18.2035 41.9518 18.2035C42.6721 18.2035 43.2778 17.9528 43.7689 17.4514C44.26 16.95 44.5055 16.3205 44.5055 15.5628C44.5055 14.8051 44.26 14.1756 43.7689 13.6742C43.2778 13.1728 42.6721 12.9221 41.9518 12.9221C41.2315 12.9221 40.6258 13.1728 40.1346 13.6742C39.6435 14.1756 39.398 14.8051 39.398 15.5628C39.398 16.3205 39.6435 16.95 40.1346 17.4514Z" fill="white"/>
<path d="M53.389 11.3844H55.157V19.7411H53.389V18.6715C52.8543 19.5294 52.0085 19.9584 50.8516 19.9584C49.913 19.9584 49.1546 19.652 48.5761 19.0392C47.9977 18.4264 47.7085 17.5851 47.7085 16.5155V11.3844H49.4765V16.3316C49.4765 16.9556 49.6402 17.4347 49.9676 17.769C50.295 18.1032 50.7425 18.2704 51.31 18.2704C51.9321 18.2704 52.4341 18.0754 52.8161 17.6854C53.198 17.2843 53.389 16.677 53.389 15.8636V11.3844Z" fill="white"/>
<path d="M58.9924 12.7884C59.4399 11.7521 60.2802 11.234 61.5135 11.234V13.1895C60.8368 13.1449 60.2475 13.312 59.7455 13.6909C59.2434 14.0586 58.9924 14.6714 58.9924 15.5294V19.7411H57.2244V11.3844H58.9924V12.7884Z" fill="white"/>
<path d="M69.679 13.6742C70.181 13.9416 70.5739 14.3093 70.8576 14.7773C71.1414 15.2452 71.2833 15.7856 71.2833 16.3985C71.2833 17.3567 70.9504 18.1534 70.2847 18.7885C69.6189 19.4236 68.8059 19.7411 67.8455 19.7411H62.9344V8.04175H67.4853C68.4239 8.04175 69.2151 8.35373 69.859 8.9777C70.5139 9.59052 70.8413 10.3593 70.8413 11.2842C70.8413 12.2981 70.4538 13.0948 69.679 13.6742ZM67.4853 9.8468H64.817V12.9221H67.4853C67.9 12.9221 68.2493 12.7772 68.533 12.4875C68.8168 12.1867 68.9587 11.819 68.9587 11.3844C68.9587 10.9499 68.8168 10.5878 68.533 10.2981C68.2493 9.99722 67.9 9.8468 67.4853 9.8468ZM67.8455 17.9361C68.282 17.9361 68.6476 17.7801 68.9423 17.4681C69.2479 17.145 69.4007 16.755 69.4007 16.2982C69.4007 15.8413 69.2479 15.4569 68.9423 15.145C68.6476 14.8218 68.282 14.6603 67.8455 14.6603H64.817V17.9361H67.8455Z" fill="white"/>
<path d="M79.3741 11.3844H81.1421V19.7411H79.3741V18.5378C78.7083 19.4849 77.7534 19.9584 76.5093 19.9584C75.3852 19.9584 74.4248 19.535 73.6281 18.6882C72.8314 17.8302 72.433 16.7884 72.433 15.5628C72.433 14.326 72.8314 13.2842 73.6281 12.4374C74.4248 11.5906 75.3852 11.1672 76.5093 11.1672C77.7534 11.1672 78.7083 11.6351 79.3741 12.5711V11.3844ZM74.9377 17.4848C75.4288 17.9862 76.0454 18.2369 76.7875 18.2369C77.5297 18.2369 78.1463 17.9862 78.6374 17.4848C79.1285 16.9723 79.3741 16.3316 79.3741 15.5628C79.3741 14.794 79.1285 14.1589 78.6374 13.6575C78.1463 13.1449 77.5297 12.8886 76.7875 12.8886C76.0454 12.8886 75.4288 13.1449 74.9377 13.6575C74.4466 14.1589 74.201 14.794 74.201 15.5628C74.201 16.3316 74.4466 16.9723 74.9377 17.4848Z" fill="white"/>
<path d="M87.5082 11.1672C88.4468 11.1672 89.2053 11.4736 89.7837 12.0864C90.3621 12.6992 90.6513 13.5405 90.6513 14.6101V19.7411H88.8833V14.794C88.8833 14.17 88.7196 13.6909 88.3922 13.3566C88.0648 13.0223 87.6174 12.8552 87.0499 12.8552C86.4278 12.8552 85.9258 13.0558 85.5438 13.4569C85.1618 13.8469 84.9708 14.4486 84.9708 15.2619V19.7411H83.2028V11.3844H84.9708V12.4541C85.5056 11.5961 86.3514 11.1672 87.5082 11.1672Z" fill="white"/>
<path d="M101.313 19.7411H99.0704L94.5522 14.1756V19.7411H92.6696V8.04175H94.5522V13.2898L98.9067 8.04175H101.149L96.5167 13.741L101.313 19.7411Z" fill="white"/>
</svg>
